<?xml version="1.0" encoding="utf-8"?>
<!-- Generator: Adobe Illustrator 17.1.0, SVG Export Plug-In . SVG Version: 6.00 Build 0)  -->
<!DOCTYPE svg PUBLIC "-//W3C//DTD SVG 1.1//EN" "http://www.w3.org/Graphics/SVG/1.1/DTD/svg11.dtd">
<svg version="1.1" id="Calque_1" xmlns="http://www.w3.org/2000/svg" xmlns:xlink="http://www.w3.org/1999/xlink" x="0px" y="0px"
	 viewBox="0 0 178.3 31.2" enable-background="new 0 0 178.3 31.2" xml:space="preserve">
<polygon fill="#FFFFFF" points="0,0 0,5 10.1,5 10.1,31.2 15.4,31.2 15.4,5 25.6,5 25.6,0 "/>
<g>
	<path fill="#FFFFFF" d="M32.1,27.4c3.3,0,5.7-2.9,5.7-7s-2.3-6.8-5.7-6.8c-3.4,0-5.8,2.6-5.8,6.8C26.3,24.5,28.5,27.4,32.1,27.4
		 M31.5,31.8c-6.3,0-10.4-5-10.4-11.4c0-6.2,4.1-11.2,10.3-11.2c3.8,0,5.7,2,6.3,3.4V9.8h5v17.5c0,1.8,0.2,3.5,0.2,3.9h-4.9
		c-0.1-0.5-0.2-1.6-0.2-3.1C36.9,30.2,34.6,31.8,31.5,31.8"/>
	<path fill="#FFFFFF" d="M51.8,24.2c0.2,1.9,1.6,3.7,4.4,3.7c2.1,0,3.2-1.1,3.2-2.5c0-1.1-0.8-2-2.5-2.4l-3.2-0.7
		c-3.8-0.8-5.8-3.3-5.8-6.3c0-3.7,3.4-6.9,7.9-6.9c6,0,7.9,3.9,8.3,6l-4.3,1.2c-0.2-1.2-1.1-3.2-4-3.2c-1.8,0-3.1,1.1-3.1,2.5
		c0,1.1,0.8,2,2.2,2.2l3.3,0.7c4.1,0.9,6.2,3.3,6.2,6.5c0,3.3-2.6,6.9-8.1,6.9c-6.2,0-8.6-4.1-8.9-6.5L51.8,24.2z"/>
	<path fill="#FFFFFF" d="M69.4,31.2V9.8h4.9v2.7c1.2-2.2,3.9-3.3,6.3-3.3c2.8,0,5.3,1.3,6.4,3.8c1.7-2.8,4.2-3.8,7-3.8
		c3.9,0,7.6,2.5,7.6,8.1v13.9h-4.9V18.1c0-2.5-1.3-4.4-4.1-4.4c-2.7,0-4.4,2.1-4.4,4.8v12.7h-5V18.1c0-2.5-1.2-4.4-4.1-4.4
		c-2.7,0-4.4,2-4.4,4.8v12.7H69.4z"/>
	<path fill="#FFFFFF" d="M139.2,31.2h-5.1V9.8h5v2.9c1.4-2.5,4-3.5,6.3-3.5c5.2,0,7.8,3.8,7.8,8.5v13.6H148V18.5
		c0-2.6-1.2-4.8-4.4-4.8c-2.9,0-4.4,2.2-4.4,5.1V31.2z"/>
	<path fill="#FFFFFF" d="M173.4,18.1c-0.1-2.5-1.8-4.8-5.3-4.8c-3.2,0-5.1,2.5-5.2,4.8H173.4z M178.3,25.1c-1.1,3.7-4.5,6.8-9.7,6.8
		c-5.8,0-11-4.2-11-11.5c0-6.8,5-11.3,10.4-11.3c6.6,0,10.5,4.4,10.5,11.1c0,0.8-0.1,1.5-0.1,1.6h-15.7c0.1,3.3,2.7,5.6,5.9,5.6
		c3.1,0,4.7-1.6,5.4-3.7L178.3,25.1z"/>
</g>
<polygon fill="#FFFFFF" points="107,9.8 107,14.8 123.4,14.8 123.4,31.2 128.4,31.2 128.4,14.8 128.4,12.3 128.4,9.8 "/>
<g>
	<path fill="#FFFFFF" d="M117.7,18.8c-5.1,2.4-9.1,6.9-10.7,12.4h5.2c1.1-2.7,3-5,5.4-6.7V18.8z"/>
</g>
</svg>
